<?xml version="1.0" encoding="UTF-8"?>
<!DOCTYPE svg PUBLIC "-//W3C//DTD SVG 1.1//EN" "http://www.w3.org/Graphics/SVG/1.1/DTD/svg11.dtd">
<svg xmlns="http://www.w3.org/2000/svg" version="1.1" width="1024px" height="1024px" style="shape-rendering:geometricPrecision; text-rendering:geometricPrecision; image-rendering:optimizeQuality; fill-rule:evenodd; clip-rule:evenodd" xmlns:xlink="http://www.w3.org/1999/xlink">
<g><path style="opacity:0.004" fill="#4e4e4f" d="M 259.5,141.5 C 260.833,142.167 260.833,142.167 259.5,141.5 Z"/></g>
<g><path style="opacity:0.004" fill="#2d2b2d" d="M 96.5,319.5 C 97.8333,320.167 97.8333,320.167 96.5,319.5 Z"/></g>
<g><path style="opacity:0.243" fill="#3c3c3a" d="M 128.5,321.5 C 118.833,321.5 109.167,321.5 99.5,321.5C 109.308,319.526 118.975,319.526 128.5,321.5 Z"/></g>
<g><path style="opacity:0.004" fill="#2d2b2a" d="M 139.5,320.5 C 140.833,321.167 140.833,321.167 139.5,320.5 Z"/></g>
<g><path style="opacity:0.008" fill="#30302d" d="M 558.5,320.5 C 559.833,321.167 559.833,321.167 558.5,320.5 Z"/></g>
<g><path style="opacity:0.008" fill="#2c2b29" d="M 607.5,320.5 C 608.833,321.167 608.833,321.167 607.5,320.5 Z"/></g>
<g><path style="opacity:0.004" fill="#2d2e2c" d="M 622.5,320.5 C 623.833,321.167 623.833,321.167 622.5,320.5 Z"/></g>
<g><path style="opacity:0.004" fill="#2c2d2b" d="M 82.5,321.5 C 83.8333,322.167 83.8333,322.167 82.5,321.5 Z"/></g>
<g><path style="opacity:0.997" fill="#010101" d="M 99.5,321.5 C 109.167,321.5 118.833,321.5 128.5,321.5C 154.394,322.782 175.728,333.116 192.5,352.5C 193.786,355.117 195.453,357.45 197.5,359.5C 209.324,383.105 213.824,408.105 211,434.5C 194.623,434.798 178.123,434.798 161.5,434.5C 161.815,430.629 161.482,426.962 160.5,423.5C 159.822,415.84 158.988,408.173 158,400.5C 157.024,395.388 155.191,390.722 152.5,386.5C 151.974,384.77 150.974,383.436 149.5,382.5C 149.262,380.596 148.262,379.262 146.5,378.5C 140.682,371.921 133.349,367.921 124.5,366.5C 123.432,365.566 122.099,365.232 120.5,365.5C 111.381,364.76 102.714,366.093 94.5,369.5C 90.4584,370.851 87.1251,373.185 84.5,376.5C 83.8333,376.5 83.5,376.833 83.5,377.5C 82.8333,377.5 82.5,377.833 82.5,378.5C 79.8095,381.039 77.6428,384.039 76,387.5C 73.3871,393.62 71.5538,399.953 70.5,406.5C 69.5013,450.664 69.1679,494.997 69.5,539.5C 70.04,564.493 70.8733,589.493 72,614.5C 77.3473,637.179 91.6807,648.845 115,649.5C 143.189,647.811 158.356,632.811 160.5,604.5C 161.497,583.34 161.831,562.007 161.5,540.5C 146.833,540.5 132.167,540.5 117.5,540.5C 117.5,526.167 117.5,511.833 117.5,497.5C 117.511,494.999 118.178,494.832 119.5,497C 121.5,497.167 123.5,497.333 125.5,497.5C 145.39,496.531 165.723,496.531 186.5,497.5C 195.167,497.5 203.833,497.5 212.5,497.5C 212.498,531.102 212.831,565.436 213.5,600.5C 210.032,661.799 177.532,693.132 116,694.5C 105.303,694.14 94.4698,692.806 83.5,690.5C 82.791,689.596 81.791,689.263 80.5,689.5C 72.072,687.618 64.072,684.618 56.5,680.5C 54.1401,678.147 51.4735,676.147 48.5,674.5C 43.8333,670.5 39.5,666.167 35.5,661.5C 35.0679,660.29 34.4013,659.29 33.5,658.5C 32.9744,656.77 31.9744,655.436 30.5,654.5C 30.6716,653.508 30.3382,652.842 29.5,652.5C 19.9098,632.489 15.9098,611.489 17.5,589.5C 17.5,587.5 17.5,585.5 17.5,583.5C 17.5,582.833 17.5,582.167 17.5,581.5C 17.5,576.833 17.5,572.167 17.5,567.5C 16.438,565.901 16.438,564.234 17.5,562.5C 17.5,562.167 17.5,561.833 17.5,561.5C 17.5,561.167 17.5,560.833 17.5,560.5C 17.5,560.167 17.5,559.833 17.5,559.5C 17.5,557.167 17.5,554.833 17.5,552.5C 17.5,549.5 17.5,546.5 17.5,543.5C 16.4647,541.795 16.4647,540.128 17.5,538.5C 16.8333,538.167 16.1667,537.833 15.5,537.5C 16.0253,536.808 16.6919,536.308 17.5,536C 16.2475,534.172 16.2475,532.339 17.5,530.5C 17.5,529.5 17.5,528.5 17.5,527.5C 16.9801,525.051 16.6468,522.718 16.5,520.5C 17.3686,518.283 17.702,515.95 17.5,513.5C 17.5,512.833 17.5,512.167 17.5,511.5C 16.5537,506.801 16.5537,502.134 17.5,497.5C 17.5,496.833 17.5,496.167 17.5,495.5C 17.5,495.167 17.5,494.833 17.5,494.5C 17.5,489.5 17.5,484.5 17.5,479.5C 17.5,479.167 17.5,478.833 17.5,478.5C 17.5,474.5 17.5,470.5 17.5,466.5C 16.1667,465.167 16.1667,463.833 17.5,462.5C 17.5,454.833 17.5,447.167 17.5,439.5C 17.5,439.167 17.5,438.833 17.5,438.5C 17.5,430.833 17.5,423.167 17.5,415.5C 17.5962,407.821 17.9295,400.154 18.5,392.5C 21.176,379.48 25.8426,367.147 32.5,355.5C 34.6054,352.973 36.9387,350.64 39.5,348.5C 40.9063,348.027 41.573,347.027 41.5,345.5C 44.1667,343.5 46.5,341.167 48.5,338.5C 50.0618,338.267 51.3951,337.6 52.5,336.5C 54.0269,336.573 55.0269,335.906 55.5,334.5C 58.8333,332.5 62.1667,330.5 65.5,328.5C 70.3935,326.758 75.3935,325.424 80.5,324.5C 83.7814,324.58 86.7814,323.913 89.5,322.5C 92.728,321.586 96.0613,321.253 99.5,321.5 Z"/></g>
<g><path style="opacity:0.012" fill="#2e2d2b" d="M 144.5,321.5 C 145.833,322.167 145.833,322.167 144.5,321.5 Z"/></g>
<g><path style="opacity:0.998" fill="#020202" d="M 633.5,330.5 C 636.989,333.137 640.655,335.637 644.5,338C 647.703,341.371 651.036,344.538 654.5,347.5C 667.334,363.86 674.001,382.527 674.5,403.5C 674.5,408.833 674.5,414.167 674.5,419.5C 658.173,420.762 641.84,420.762 625.5,419.5C 625.817,415.298 625.483,411.298 624.5,407.5C 618.334,371.748 598.001,359.581 563.5,371C 560.334,373 557.668,375.5 555.5,378.5C 549.726,384.962 546.56,392.629 546,401.5C 544.333,423.496 552.166,441.329 569.5,455C 574.712,459.052 580.045,462.885 585.5,466.5C 598.951,476.732 612.618,486.732 626.5,496.5C 678.009,534.858 693.509,584.524 673,645.5C 658.796,674.201 635.63,689.867 603.5,692.5C 599.069,692.231 594.735,692.564 590.5,693.5C 565.909,695.449 543.243,689.783 522.5,676.5C 516.13,671.131 510.463,665.131 505.5,658.5C 502.485,653.132 499.485,647.798 496.5,642.5C 495.739,638.216 494.405,634.216 492.5,630.5C 489.991,619.57 488.991,608.57 489.5,597.5C 489.181,592.637 489.514,587.97 490.5,583.5C 506.342,583.83 522.009,583.496 537.5,582.5C 537.833,582.5 538.167,582.5 538.5,582.5C 539.137,590.266 539.804,597.933 540.5,605.5C 545.705,638.512 564.372,652.679 596.5,648C 616.448,641.027 626.948,626.86 628,605.5C 629.64,590.391 626.14,576.724 617.5,564.5C 617.672,563.508 617.338,562.842 616.5,562.5C 610.5,553.167 602.833,545.5 593.5,539.5C 591.23,537.025 588.563,535.025 585.5,533.5C 577.896,527.025 569.896,521.025 561.5,515.5C 559.704,513.1 557.37,511.433 554.5,510.5C 549.573,505.698 544.24,501.365 538.5,497.5C 537.127,495.793 535.461,494.46 533.5,493.5C 530.833,490.167 527.833,487.167 524.5,484.5C 520.805,480.474 517.138,476.474 513.5,472.5C 511.656,468.808 509.323,465.475 506.5,462.5C 503.691,456.883 500.691,450.883 497.5,444.5C 492.771,427.847 491.271,410.847 493,393.5C 494.891,376.068 501.391,360.735 512.5,347.5C 515.5,345.167 518.167,342.5 520.5,339.5C 525.523,336.133 530.523,332.8 535.5,329.5C 536.492,329.672 537.158,329.338 537.5,328.5C 569.761,317.271 601.761,317.938 633.5,330.5 Z"/></g>
<g><path style="opacity:0.988" fill="#232221" d="M 89.5,322.5 C 86.7814,323.913 83.7814,324.58 80.5,324.5C 83.2186,323.087 86.2186,322.42 89.5,322.5 Z"/></g>
<g><path style="opacity:0.004" fill="#2e2e2a" d="M 154.5,324.5 C 155.833,325.167 155.833,325.167 154.5,324.5 Z"/></g>
<g><path style="opacity:0.004" fill="#353735" d="M 716.5,326.5 C 715.833,325.167 715.833,325.167 716.5,326.5 Z"/></g>
<g><path style="opacity:0.008" fill="#3b3b3a" d="M 255.5,326.5 C 256.833,327.167 256.833,327.167 255.5,326.5 Z"/></g>
<g><path style="opacity:0.006" fill="#2e2d2d" d="M 65.5,328.5 C 64.7611,328.631 64.0944,328.464 63.5,328C 64.4368,327.308 65.1034,327.475 65.5,328.5 Z"/></g>
<g><path style="opacity:0.998" fill="#000000" d="M 311.5,327.5 C 312.669,415.249 312.669,501.749 311.5,587C 311.887,598.259 313.054,609.426 315,620.5C 319.658,637.074 330.492,646.574 347.5,649C 365.291,651.742 379.791,646.242 391,632.5C 396.02,622.419 398.854,611.753 399.5,600.5C 400.499,509.668 400.833,418.668 400.5,327.5C 418.167,327.5 435.833,327.5 453.5,327.5C 453.5,421.167 453.5,514.833 453.5,608.5C 448.726,662.941 419.059,691.608 364.5,694.5C 340.614,695.41 317.947,690.744 296.5,680.5C 291.858,676.864 287.191,673.197 282.5,669.5C 279.25,665.978 276.25,662.311 273.5,658.5C 272.974,656.77 271.974,655.436 270.5,654.5C 266.575,646.661 263.241,638.661 260.5,630.5C 260.037,627.518 259.704,624.518 259.5,621.5C 259.784,619.585 259.451,617.919 258.5,616.5C 258.5,615.5 258.5,614.5 258.5,613.5C 258.5,518.167 258.5,422.833 258.5,327.5C 276.167,327.5 293.833,327.5 311.5,327.5 Z"/></g>
<g><path style="opacity:0.008" fill="#2f2f2e" d="M 530.5,327.5 C 531.833,328.167 531.833,328.167 530.5,327.5 Z"/></g>
<g><path style="opacity:0.004" fill="#2f2e2e" d="M 535.5,329.5 C 534.475,329.103 534.308,328.437 535,327.5C 535.464,328.094 535.631,328.761 535.5,329.5 Z"/></g>
<g><path style="opacity:0.02" fill="#2e2d2d" d="M 537.5,328.5 C 536.833,327.167 536.833,327.167 537.5,328.5 Z"/></g>
<g><path style="opacity:0.998" fill="#010101" d="M 880.5,510.5 C 875.322,515.25 869.655,519.25 863.5,522.5C 862.833,522.5 862.5,522.833 862.5,523.5C 860.654,523.222 859.32,523.889 858.5,525.5C 870.533,558.609 882.533,591.609 894.5,624.5C 901.31,644.931 908.31,665.264 915.5,685.5C 896.264,686.825 876.931,686.825 857.5,685.5C 855.3,679.567 853.3,673.567 851.5,667.5C 851.672,666.508 851.338,665.842 850.5,665.5C 842.667,641.865 834.334,618.532 825.5,595.5C 823.411,587.233 820.744,579.233 817.5,571.5C 813.167,558.167 808.833,544.833 804.5,531.5C 794.013,530.506 783.346,530.172 772.5,530.5C 772.5,582.5 772.5,634.5 772.5,686.5C 754.167,686.5 735.833,686.5 717.5,686.5C 717.435,675.585 717.435,664.419 717.5,653C 717.646,650.966 716.98,649.299 715.5,648C 716.624,647.161 717.291,645.994 717.5,644.5C 716.777,630.64 716.777,616.973 717.5,603.5C 717.5,602.5 717.5,601.5 717.5,600.5C 717.752,587.635 717.419,575.301 716.5,563.5C 717.444,560.001 717.444,556.668 716.5,553.5C 716.859,548.821 717.192,544.154 717.5,539.5C 717.5,538.167 717.5,536.833 717.5,535.5C 716.591,510.357 716.257,485.023 716.5,459.5C 716.686,446.911 717.019,433.911 717.5,420.5C 717.5,418.833 717.5,417.167 717.5,415.5C 717.702,413.05 717.369,410.717 716.5,408.5C 717.166,381.167 717.166,353.834 716.5,326.5C 717.117,326.389 717.617,326.056 718,325.5C 753.429,326.33 788.929,326.83 824.5,327C 866.968,330.809 893.468,353.309 904,394.5C 908.647,418.836 908.647,443.169 904,467.5C 899.801,483.903 891.968,498.236 880.5,510.5 Z M 773.5,371.5 C 787.382,371.157 801.382,371.657 815.5,373C 822.298,373.869 828.298,376.369 833.5,380.5C 841.97,387.092 847.136,395.758 849,406.5C 850.131,412.112 850.631,417.779 850.5,423.5C 851.618,435.975 850.118,448.308 846,460.5C 844.226,465.07 841.726,469.07 838.5,472.5C 837.922,471.453 837.256,471.62 836.5,473C 836.728,473.399 837.062,473.565 837.5,473.5C 835.363,476.973 832.363,479.306 828.5,480.5C 824.278,483.191 819.612,485.024 814.5,486C 806.731,486.766 799.397,487.266 792.5,487.5C 786.355,486.51 780.022,486.177 773.5,486.5C 773.5,448.167 773.5,409.833 773.5,371.5 Z"/></g>
<g><path style="opacity:0.004" fill="#292a29" d="M 843.5,327.5 C 844.833,328.167 844.833,328.167 843.5,327.5 Z"/></g>
<g><path style="opacity:0.997" fill="#000000" d="M 954.5,327.5 C 972.5,327.5 990.5,327.5 1008.5,327.5C 1008.5,447.167 1008.5,566.833 1008.5,686.5C 990.5,686.5 972.5,686.5 954.5,686.5C 954.5,684.833 954.5,683.167 954.5,681.5C 953.755,671.26 953.421,661.26 953.5,651.5C 954.634,623.005 954.634,595.005 953.5,567.5C 954.465,547.602 954.798,527.602 954.5,507.5C 954.5,506.5 954.5,505.5 954.5,504.5C 953.825,502.717 953.492,501.05 953.5,499.5C 954.475,491.666 954.808,484 954.5,476.5C 954.5,475.5 954.5,474.5 954.5,473.5C 954.596,460.55 954.263,447.883 953.5,435.5C 953.471,426.216 953.804,416.883 954.5,407.5C 954.5,405.167 954.5,402.833 954.5,400.5C 954.265,392.049 954.265,383.716 954.5,375.5C 954.5,373.167 954.5,370.833 954.5,368.5C 953.997,354.99 953.997,341.323 954.5,327.5 Z"/></g>
<g><path style="opacity:0.004" fill="#2d2b2a" d="M 633.5,329.5 C 634.833,330.167 634.833,330.167 633.5,329.5 Z"/></g>
<g><path style="opacity:0.004" fill="#2b2929" d="M 848.5,330.5 C 848.897,329.475 849.563,329.308 850.5,330C 849.906,330.464 849.239,330.631 848.5,330.5 Z"/></g>
<g><path style="opacity:0.004" fill="#2f302d" d="M 57.5,330.5 C 58.8333,331.167 58.8333,331.167 57.5,330.5 Z"/></g>
<g><path style="opacity:0.004" fill="#2d2b2a" d="M 854.5,331.5 C 855.833,332.167 855.833,332.167 854.5,331.5 Z"/></g>
<g><path style="opacity:0.855" fill="#2c2a2b" d="M 55.5,334.5 C 55.0269,335.906 54.0269,336.573 52.5,336.5C 52.9731,335.094 53.9731,334.427 55.5,334.5 Z"/></g>
<g><path style="opacity:0.004" fill="#302f2b" d="M 181.5,335.5 C 182.833,336.167 182.833,336.167 181.5,335.5 Z"/></g>
<g><path style="opacity:0.004" fill="#2c2b2d" d="M 522.5,335.5 C 523.833,336.167 523.833,336.167 522.5,335.5 Z"/></g>
<g><path style="opacity:0.004" fill="#2a2a29" d="M 643.5,335.5 C 644.833,336.167 644.833,336.167 643.5,335.5 Z"/></g>
<g><path style="opacity:0.004" fill="#2d2c2a" d="M 520.5,336.5 C 521.833,337.167 521.833,337.167 520.5,336.5 Z"/></g>
<g><path style="opacity:0.004" fill="#292826" d="M 1010.5,336.5 C 1011.83,337.167 1011.83,337.167 1010.5,336.5 Z"/></g>
<g><path style="opacity:0.004" fill="#2b2b2b" d="M 48.5,338.5 C 47.8333,337.167 47.8333,337.167 48.5,338.5 Z"/></g>
<g><path style="opacity:0.004" fill="#2c2c2b" d="M 520.5,339.5 C 519.833,338.167 519.833,338.167 520.5,339.5 Z"/></g>
<g><path style="opacity:0.011" fill="#363535" d="M 257.5,335.5 C 257.5,338.5 257.5,341.5 257.5,344.5C 256.711,344.217 256.044,343.717 255.5,343C 256.123,340.393 256.79,337.893 257.5,335.5 Z"/></g>
<g><path style="opacity:0.004" fill="#2e2d2f" d="M 40.5,343.5 C 41.8333,344.167 41.8333,344.167 40.5,343.5 Z"/></g>
<g><path style="opacity:0.004" fill="#2d2d2c" d="M 512.5,344.5 C 513.833,345.167 513.833,345.167 512.5,344.5 Z"/></g>
<g><path style="opacity:0.004" fill="#2c2c2b" d="M 39.5,346.5 C 38.8333,345.167 38.8333,345.167 39.5,346.5 Z"/></g>
<g><path style="opacity:0.784" fill="#2c2c2c" d="M 41.5,345.5 C 41.573,347.027 40.9063,348.027 39.5,348.5C 39.5,347.833 39.5,347.167 39.5,346.5C 40.1667,346.167 40.8333,345.833 41.5,345.5 Z"/></g>
<g><path style="opacity:0.011" fill="#333333" d="M 257.5,346.5 C 257.5,351.167 257.5,355.833 257.5,360.5C 255.299,355.939 255.299,351.272 257.5,346.5 Z"/></g>
<g><path style="opacity:0.004" fill="#2b2b2b" d="M 512.5,347.5 C 511.833,346.167 511.833,346.167 512.5,347.5 Z"/></g>
<g><path style="opacity:0.004" fill="#2b2b27" d="M 654.5,346.5 C 655.833,347.167 655.833,347.167 654.5,346.5 Z"/></g>
<g><path style="opacity:0.004" fill="#2a2b2a" d="M 883.5,349.5 C 884.833,350.167 884.833,350.167 883.5,349.5 Z"/></g>
<g><path style="opacity:0.004" fill="#2d2b2a" d="M 192.5,351.5 C 193.833,352.167 193.833,352.167 192.5,351.5 Z"/></g>
<g><path style="opacity:0.004" fill="#2b2c2b" d="M 32.5,355.5 C 31.8333,354.167 31.8333,354.167 32.5,355.5 Z"/></g>
<g><path style="opacity:0.008" fill="#2a2729" d="M 198.5,359.5 C 197.833,358.167 197.833,358.167 198.5,359.5 Z"/></g>
<g><path style="opacity:0.008" fill="#292828" d="M 198.5,359.5 C 199.833,360.167 199.833,360.167 198.5,359.5 Z"/></g>
<g><path style="opacity:0.004" fill="#2a2c2a" d="M 664.5,359.5 C 665.833,360.167 665.833,360.167 664.5,359.5 Z"/></g>
<g><path style="opacity:0.004" fill="#262626" d="M 951.5,360.5 C 951.897,359.475 952.563,359.308 953.5,360C 952.906,360.464 952.239,360.631 951.5,360.5 Z"/></g>
<g><path style="opacity:0.096" fill="#333432" d="M 120.5,365.5 C 122.099,365.232 123.432,365.566 124.5,366.5C 123.178,366.33 122.011,366.663 121,367.5C 120.536,366.906 120.369,366.239 120.5,365.5 Z"/></g>
<g><path style="opacity:0.008" fill="#201f1d" d="M 112.5,366.5 C 113.833,367.167 113.833,367.167 112.5,366.5 Z"/></g>
<g><path style="opacity:0.008" fill="#21201e" d="M 115.5,366.5 C 116.833,367.167 116.833,367.167 115.5,366.5 Z"/></g>
<g><path style="opacity:0.012" fill="#373837" d="M 954.5,368.5 C 954.5,370.833 954.5,373.167 954.5,375.5C 953.599,374.71 952.932,373.71 952.5,372.5C 953.097,372.265 953.43,371.765 953.5,371C 952.833,370.333 952.167,369.667 951.5,369C 952.176,367.317 953.176,367.15 954.5,368.5 Z"/></g>
<g><path style="opacity:0.004" fill="#252424" d="M 94.5,369.5 C 95.8333,370.167 95.8333,370.167 94.5,369.5 Z"/></g>
<g><path style="opacity:0.004" fill="#292727" d="M 203.5,369.5 C 204.833,370.167 204.833,370.167 203.5,369.5 Z"/></g>
<g><path style="opacity:0.011" fill="#313231" d="M 257.5,361.5 C 257.5,377.167 257.5,392.833 257.5,408.5C 256.784,406.444 256.117,404.277 255.5,402C 256.742,388.576 256.742,375.243 255.5,362C 256.094,361.536 256.761,361.369 257.5,361.5 Z"/></g>
<g><path style="opacity:0.004" fill="#282725" d="M 952.5,372.5 C 951.833,371.167 951.833,371.167 952.5,372.5 Z"/></g>
<g><path style="opacity:0.004" fill="#252321" d="M 603.5,372.5 C 604.833,373.167 604.833,373.167 603.5,372.5 Z"/></g>
<g><path style="opacity:0.008" fill="#252624" d="M 138.5,373.5 C 139.833,374.167 139.833,374.167 138.5,373.5 Z"/></g>
<g><path style="opacity:0.004" fill="#2a2a28" d="M 20.5,376.5 C 21.8333,377.167 21.8333,377.167 20.5,376.5 Z"/></g>
<g><path style="opacity:0.004" fill="#23241f" d="M 84.5,376.5 C 85.8333,377.167 85.8333,377.167 84.5,376.5 Z"/></g>
<g><path style="opacity:0.012" fill="#222222" d="M 83.5,377.5 C 83.8333,377.5 84.1667,377.5 84.5,377.5C 84.3147,378.17 83.9813,378.17 83.5,377.5 Z"/></g>
<g><path style="opacity:0.004" fill="#242321" d="M 82.5,378.5 C 82.8333,378.5 83.1667,378.5 83.5,378.5C 83.3147,379.17 82.9813,379.17 82.5,378.5 Z"/></g>
<g><path style="opacity:0.008" fill="#282824" d="M 146.5,378.5 C 145.833,379.167 145.833,379.167 146.5,378.5 Z"/></g>
<g><path style="opacity:0.016" fill="#201f1f" d="M 555.5,378.5 C 556.833,379.167 556.833,379.167 555.5,378.5 Z"/></g>
<g><path style="opacity:0.004" fill="#232120" d="M 86.5,380.5 C 87.8333,381.167 87.8333,381.167 86.5,380.5 Z"/></g>
<g><path style="opacity:0.004" fill="#222321" d="M 612.5,380.5 C 613.833,381.167 613.833,381.167 612.5,380.5 Z"/></g>
<g><path style="opacity:0.004" fill="#2b2d2b" d="M 19.5,381.5 C 20.8333,382.167 20.8333,382.167 19.5,381.5 Z"/></g>
<g><path style="opacity:0.004" fill="#262623" d="M 148.5,382.5 C 147.833,381.167 147.833,381.167 148.5,382.5 Z"/></g>
<g><path style="opacity:0.008" fill="#242321" d="M 148.5,382.5 C 148.833,382.5 149.167,382.5 149.5,382.5C 149.315,383.17 148.981,383.17 148.5,382.5 Z"/></g>
<g><path style="opacity:0.004" fill="#242522" d="M 902.5,383.5 C 903.833,384.167 903.833,384.167 902.5,383.5 Z"/></g>
<g><path style="opacity:0.004" fill="#292829" d="M 15.5,384.5 C 16.8333,385.167 16.8333,385.167 15.5,384.5 Z"/></g>
<g><path style="opacity:0.008" fill="#262522" d="M 152.5,386.5 C 151.833,387.167 151.833,387.167 152.5,386.5 Z"/></g>
<g><path style="opacity:0.004" fill="#272826" d="M 951.5,386.5 C 952.833,387.167 952.833,387.167 951.5,386.5 Z"/></g>
<g><path style="opacity:0.004" fill="#292a27" d="M 17.5,387.5 C 18.8333,388.167 18.8333,388.167 17.5,387.5 Z"/></g>
<g><path style="opacity:0.004" fill="#262622" d="M 617.5,390.5 C 618.833,391.167 618.833,391.167 617.5,390.5 Z"/></g>
<g><path style="opacity:0.004" fill="#272524" d="M 674.5,390.5 C 675.833,391.167 675.833,391.167 674.5,390.5 Z"/></g>
<g><path style="opacity:0.004" fill="#282926" d="M 18.5,392.5 C 17.8333,391.167 17.8333,391.167 18.5,392.5 Z"/></g>
<g><path style="opacity:0.006" fill="#242221" d="M 151.5,391.5 C 152.525,391.897 152.692,392.563 152,393.5C 151.536,392.906 151.369,392.239 151.5,391.5 Z"/></g>
<g><path style="opacity:0.004" fill="#2b2929" d="M 490.5,392.5 C 491.833,393.167 491.833,393.167 490.5,392.5 Z"/></g>
<g><path style="opacity:0.006" fill="#262624" d="M 951.5,393.5 C 952.525,393.897 952.692,394.563 952,395.5C 951.536,394.906 951.369,394.239 951.5,393.5 Z"/></g>
<g><path style="opacity:0.004" fill="#2b292a" d="M 16.5,394.5 C 17.525,394.897 17.6917,395.563 17,396.5C 16.5357,395.906 16.369,395.239 16.5,394.5 Z"/></g>
<g><path style="opacity:0.004" fill="#282927" d="M 675.5,397.5 C 676.833,398.167 676.833,398.167 675.5,397.5 Z"/></g>
<g><path style="opacity:0.004" fill="#252624" d="M 155.5,398.5 C 156.833,399.167 156.833,399.167 155.5,398.5 Z"/></g>
<g><path style="opacity:0.004" fill="#282727" d="M 211.5,399.5 C 212.525,399.897 212.692,400.563 212,401.5C 211.536,400.906 211.369,400.239 211.5,399.5 Z"/></g>
<g><path style="opacity:0.004" fill="#272728" d="M 15.5,400.5 C 16.8333,401.167 16.8333,401.167 15.5,400.5 Z"/></g>
<g><path style="opacity:0.013" fill="#3b3b3a" d="M 954.5,400.5 C 954.5,402.833 954.5,405.167 954.5,407.5C 953.862,405.427 952.862,403.427 951.5,401.5C 952.394,401.483 953.394,401.149 954.5,400.5 Z"/></g>
<g><path style="opacity:0.004" fill="#232523" d="M 156.5,404.5 C 157.833,405.167 157.833,405.167 156.5,404.5 Z"/></g>
<g><path style="opacity:0.004" fill="#252626" d="M 716.5,408.5 C 715.833,407.167 715.833,407.167 716.5,408.5 Z"/></g>
<g><path style="opacity:0.004" fill="#20201d" d="M 546.5,408.5 C 547.833,409.167 547.833,409.167 546.5,408.5 Z"/></g>
<g><path style="opacity:0.011" fill="#323231" d="M 257.5,409.5 C 257.5,422.833 257.5,436.167 257.5,449.5C 256.761,449.631 256.094,449.464 255.5,449C 256.381,436.061 256.381,423.061 255.5,410C 256.094,409.536 256.761,409.369 257.5,409.5 Z"/></g>
<g><path style="opacity:0.231" fill="#373736" d="M 674.5,403.5 C 675.191,407.899 675.858,412.399 676.5,417C 675.934,417.995 675.267,418.828 674.5,419.5C 674.5,414.167 674.5,408.833 674.5,403.5 Z"/></g>
<g><path style="opacity:0.008" fill="#282625" d="M 951.5,411.5 C 952.833,412.167 952.833,412.167 951.5,411.5 Z"/></g>
<g><path style="opacity:0.008" fill="#282825" d="M 490.5,412.5 C 491.833,413.167 491.833,413.167 490.5,412.5 Z"/></g>
<g><path style="opacity:0.055" fill="#353333" d="M 624.5,407.5 C 625.483,411.298 625.817,415.298 625.5,419.5C 624.414,419.38 623.747,418.713 623.5,417.5C 624.327,414.217 624.66,410.884 624.5,407.5 Z"/></g>
<g><path style="opacity:0.004" fill="#282627" d="M 490.5,416.5 C 491.573,417.251 491.74,418.251 491,419.5C 490.517,418.552 490.351,417.552 490.5,416.5 Z"/></g>
<g><path style="opacity:0.004" fill="#1f201e" d="M 547.5,416.5 C 548.833,417.167 548.833,417.167 547.5,416.5 Z"/></g>
<g><path style="opacity:0.009" fill="#353333" d="M 717.5,415.5 C 717.5,417.167 717.5,418.833 717.5,420.5C 714.833,418.833 714.833,417.167 717.5,415.5 Z"/></g>
<g><path style="opacity:0.004" fill="#2a2a29" d="M 490.5,420.5 C 491.833,421.167 491.833,421.167 490.5,420.5 Z"/></g>
<g><path style="opacity:0.006" fill="#2b2927" d="M 625.5,422.5 C 626.251,421.427 627.251,421.26 628.5,422C 627.552,422.483 626.552,422.649 625.5,422.5 Z"/></g>
<g><path style="opacity:0.016" fill="#282a26" d="M 629.5,421.5 C 630.833,422.167 630.833,422.167 629.5,421.5 Z"/></g>
<g><path style="opacity:0.008" fill="#2b2928" d="M 631.5,422.5 C 631.897,421.475 632.563,421.308 633.5,422C 632.906,422.464 632.239,422.631 631.5,422.5 Z"/></g>
<g><path style="opacity:0.008" fill="#2a2929" d="M 635.5,421.5 C 636.833,422.167 636.833,422.167 635.5,421.5 Z"/></g>
<g><path style="opacity:0.012" fill="#282927" d="M 643.5,421.5 C 644.833,422.167 644.833,422.167 643.5,421.5 Z"/></g>
<g><path style="opacity:0.004" fill="#2a2927" d="M 645.5,421.5 C 646.833,422.167 646.833,422.167 645.5,421.5 Z"/></g>
<g><path style="opacity:0.004" fill="#2a2a28" d="M 656.5,421.5 C 657.833,422.167 657.833,422.167 656.5,421.5 Z"/></g>
<g><path style="opacity:0.008" fill="#2b2a29" d="M 658.5,422.5 C 658.897,421.475 659.563,421.308 660.5,422C 659.906,422.464 659.239,422.631 658.5,422.5 Z"/></g>
<g><path style="opacity:0.004" fill="#2f302c" d="M 673.5,421.5 C 674.833,422.167 674.833,422.167 673.5,421.5 Z"/></g>
<g><path style="opacity:0.004" fill="#2d2e2a" d="M 675.5,421.5 C 676.833,422.167 676.833,422.167 675.5,421.5 Z"/></g>
<g><path style="opacity:0.004" fill="#272725" d="M 212.5,424.5 C 213.833,425.167 213.833,425.167 212.5,424.5 Z"/></g>
<g><path style="opacity:0.714" fill="#1e1f1e" d="M 160.5,423.5 C 161.482,426.962 161.815,430.629 161.5,434.5C 160.503,434.53 159.836,434.03 159.5,433C 159.808,429.375 160.141,426.208 160.5,423.5 Z"/></g>
<g><path style="opacity:0.008" fill="#272725" d="M 491.5,425.5 C 492.833,426.167 492.833,426.167 491.5,425.5 Z"/></g>
<g><path style="opacity:0.008" fill="#272926" d="M 491.5,427.5 C 492.833,428.167 492.833,428.167 491.5,427.5 Z"/></g>
<g><path style="opacity:0.668" fill="#212122" d="M 453.5,608.5 C 453.5,514.833 453.5,421.167 453.5,327.5C 435.833,327.5 418.167,327.5 400.5,327.5C 400.833,418.668 400.499,509.668 399.5,600.5C 399.348,508.795 399.348,417.461 399.5,326.5C 418.17,326.333 436.836,326.5 455.5,327C 454.58,397.847 454.58,468.18 455.5,538C 454.848,561.64 454.181,585.14 453.5,608.5 Z"/></g>
<g><path style="opacity:0.01" fill="#2a2828" d="M 212.5,431.5 C 213.525,431.897 213.692,432.563 213,433.5C 212.536,432.906 212.369,432.239 212.5,431.5 Z"/></g>
<g><path style="opacity:0.004" fill="#282728" d="M 951.5,432.5 C 952.833,433.167 952.833,433.167 951.5,432.5 Z"/></g>
<g><path style="opacity:0.008" fill="#3c3c3d" d="M 17.5,415.5 C 17.5,423.167 17.5,430.833 17.5,438.5C 16.7656,437.122 16.0989,435.622 15.5,434C 16.1486,427.734 16.8153,421.567 17.5,415.5 Z"/></g>
<g><path style="opacity:0.004" fill="#282727" d="M 953.5,435.5 C 953.631,436.239 953.464,436.906 953,437.5C 952.308,436.563 952.475,435.897 953.5,435.5 Z"/></g>
<g><path style="opacity:0.004" fill="#292926" d="M 160.5,436.5 C 161.833,437.167 161.833,437.167 160.5,436.5 Z"/></g>
<g><path style="opacity:0.004" fill="#272626" d="M 171.5,437.5 C 172.833,438.167 172.833,438.167 171.5,437.5 Z"/></g>
<g><path style="opacity:0.004" fill="#2a2a2b" d="M 207.5,438.5 C 208.833,439.167 208.833,439.167 207.5,438.5 Z"/></g>
<g><path style="opacity:0.004" fill="#272526" d="M 847.5,440.5 C 847.56,439.957 847.893,439.624 848.5,439.5C 849.583,440.365 849.749,441.365 849,442.5C 848.722,441.584 848.222,440.918 847.5,440.5 Z"/></g>
<g><path style="opacity:0.004" fill="#282726" d="M 497.5,444.5 C 497.631,445.239 497.464,445.906 497,446.5C 496.308,445.563 496.475,444.897 497.5,444.5 Z"/></g>
<g><path style="opacity:0.008" fill="#3b3c3c" d="M 17.5,439.5 C 17.5,447.167 17.5,454.833 17.5,462.5C 16.6942,461.003 16.0276,459.336 15.5,457.5C 16.1757,452.197 16.1757,447.031 15.5,442C 15.6387,440.699 16.3054,439.866 17.5,439.5 Z"/></g>
<g><path style="opacity:0.374" fill="#2a2a29" d="M 773.5,371.5 C 773.5,409.833 773.5,448.167 773.5,486.5C 780.022,486.177 786.355,486.51 792.5,487.5C 785.833,487.5 779.167,487.5 772.5,487.5C 772.168,448.663 772.501,409.996 773.5,371.5 Z"/></g>
<g><path style="opacity:0.008" fill="#282928" d="M 498.5,450.5 C 499.833,451.167 499.833,451.167 498.5,450.5 Z"/></g>
<g><path style="opacity:0.007" fill="#383837" d="M 70.5,406.5 C 70.1828,415.418 70.5161,424.251 71.5,433C 70.8365,468.598 70.1698,504.098 69.5,539.5C 69.1679,494.997 69.5013,450.664 70.5,406.5 Z"/></g>
<g><path style="opacity:0.01" fill="#323231" d="M 257.5,454.5 C 257.5,464.833 257.5,475.167 257.5,485.5C 256.475,484.626 255.808,483.459 255.5,482C 256.559,476.411 256.559,470.911 255.5,465.5C 256.027,461.669 256.694,458.002 257.5,454.5 Z"/></g>
<g><path style="opacity:0.004" fill="#292825" d="M 500.5,454.5 C 501.833,455.167 501.833,455.167 500.5,454.5 Z"/></g>
<g><path style="opacity:0.004" fill="#282728" d="M 907.5,454.5 C 908.833,455.167 908.833,455.167 907.5,454.5 Z"/></g>
<g><path style="opacity:0.004" fill="#252525" d="M 952.5,455.5 C 953.833,456.167 953.833,456.167 952.5,455.5 Z"/></g>
<g><path style="opacity:0.004" fill="#242623" d="M 716.5,459.5 C 715.833,460.167 715.833,460.167 716.5,459.5 Z"/></g>
<g><path style="opacity:0.004" fill="#292929" d="M 506.5,462.5 C 505.833,463.167 505.833,463.167 506.5,462.5 Z"/></g>
<g><path style="opacity:0.004" fill="#262523" d="M 585.5,465.5 C 586.833,466.167 586.833,466.167 585.5,465.5 Z"/></g>
<g><path style="opacity:0.004" fill="#262525" d="M 715.5,465.5 C 716.833,466.167 716.833,466.167 715.5,465.5 Z"/></g>
<g><path style="opacity:0.005" fill="#272626" d="M 951.5,463.5 C 952.613,464.946 952.78,466.613 952,468.5C 951.506,466.866 951.34,465.199 951.5,463.5 Z"/></g>
<g><path style="opacity:0.004" fill="#2a2828" d="M 508.5,467.5 C 509.833,468.167 509.833,468.167 508.5,467.5 Z"/></g>
<g><path style="opacity:0.015" fill="#3b3c3c" d="M 17.5,466.5 C 17.5,470.5 17.5,474.5 17.5,478.5C 15.1464,474.544 15.1464,470.544 17.5,466.5 Z"/></g>
<g><path style="opacity:0.004" fill="#292825" d="M 513.5,472.5 C 512.833,473.167 512.833,473.167 513.5,472.5 Z"/></g>
<g><path style="opacity:0.004" fill="#262826" d="M 951.5,472.5 C 952.833,473.167 952.833,473.167 951.5,472.5 Z"/></g>
<g><path style="opacity:0.004" fill="#2a2925" d="M 514.5,475.5 C 515.833,476.167 515.833,476.167 514.5,475.5 Z"/></g>
<g><path style="opacity:0.004" fill="#3d3d3d" d="M 954.5,473.5 C 954.5,474.5 954.5,475.5 954.5,476.5C 952.443,476.043 952.443,475.043 954.5,473.5 Z"/></g>
<g><path style="opacity:0.004" fill="#2a2b2a" d="M 395.5,477.5 C 396.833,478.167 396.833,478.167 395.5,477.5 Z"/></g>
<g><path style="opacity:0.004" fill="#292a26" d="M 514.5,477.5 C 515.833,478.167 515.833,478.167 514.5,477.5 Z"/></g>
<g><path style="opacity:0.004" fill="#262625" d="M 952.5,483.5 C 953.833,484.167 953.833,484.167 952.5,483.5 Z"/></g>
<g><path style="opacity:0.012" fill="#282624" d="M 524.5,484.5 C 523.833,485.167 523.833,485.167 524.5,484.5 Z"/></g>
<g><path style="opacity:0.012" fill="#3c3d3d" d="M 17.5,479.5 C 17.5,484.5 17.5,489.5 17.5,494.5C 16.5657,493.228 15.899,491.728 15.5,490C 16.0624,486.346 16.729,482.846 17.5,479.5 Z"/></g>
<g><path style="opacity:0.012" fill="#313130" d="M 257.5,487.5 C 257.5,495.833 257.5,504.167 257.5,512.5C 256.784,510.444 256.117,508.277 255.5,506C 255.904,500.596 255.904,495.096 255.5,489.5C 255.747,488.287 256.414,487.62 257.5,487.5 Z"/></g>
<g><path style="opacity:0.008" fill="#282725" d="M 533.5,493.5 C 532.833,494.167 532.833,494.167 533.5,493.5 Z"/></g>
<g><path style="opacity:0.008" fill="#272625" d="M 626.5,495.5 C 627.833,496.167 627.833,496.167 626.5,495.5 Z"/></g>
<g><path style="opacity:0.008" fill="#424241" d="M 212.5,497.5 C 203.833,497.5 195.167,497.5 186.5,497.5C 193.901,496.818 201.401,496.152 209,495.5C 210.302,496.085 211.469,496.751 212.5,497.5 Z"/></g>
<g><path style="opacity:0.004" fill="#2d2e2f" d="M 17.5,495.5 C 17.5,496.167 17.5,496.833 17.5,497.5C 14.8133,498.061 14.8133,497.394 17.5,495.5 Z"/></g>
<g><path style="opacity:0.004" fill="#262523" d="M 538.5,497.5 C 537.833,498.167 537.833,498.167 538.5,497.5 Z"/></g>
<g><path style="opacity:0.006" fill="#292727" d="M 953.5,499.5 C 952.923,500.773 952.257,500.773 951.5,499.5C 951.97,498.537 952.637,498.537 953.5,499.5 Z"/></g>
<g><path style="opacity:0.004" fill="#2b2926" d="M 114.5,500.5 C 115.833,501.167 115.833,501.167 114.5,500.5 Z"/></g>
<g><path style="opacity:0.004" fill="#282727" d="M 952.5,506.5 C 951.833,505.167 951.833,505.167 952.5,506.5 Z"/></g>
<g><path style="opacity:0.012" fill="#3c3e3c" d="M 954.5,504.5 C 954.5,505.5 954.5,506.5 954.5,507.5C 953.833,507.5 953.167,507.5 952.5,507.5C 952.5,507.167 952.5,506.833 952.5,506.5C 953.167,505.833 953.833,505.167 954.5,504.5 Z"/></g>
<g><path style="opacity:0.004" fill="#282726" d="M 886.5,507.5 C 887.833,508.167 887.833,508.167 886.5,507.5 Z"/></g>
<g><path style="opacity:0.004" fill="#2a2828" d="M 952.5,507.5 C 951.833,508.167 951.833,508.167 952.5,507.5 Z"/></g>
<g><path style="opacity:0.008" fill="#2a2829" d="M 554.5,510.5 C 553.833,511.167 553.833,511.167 554.5,510.5 Z"/></g>
<g><path style="opacity:0.004" fill="#202421" d="M 880.5,510.5 C 881.833,511.167 881.833,511.167 880.5,510.5 Z"/></g>
<g><path style="opacity:0.004" fill="#282a28" d="M 952.5,511.5 C 951.833,510.167 951.833,510.167 952.5,511.5 Z"/></g>
<g><path style="opacity:0.008" fill="#3c3b3c" d="M 17.5,511.5 C 17.5,512.167 17.5,512.833 17.5,513.5C 17.1667,513.5 16.8333,513.5 16.5,513.5C 14.9689,512.075 15.3023,511.409 17.5,511.5 Z"/></g>
<g><path style="opacity:0.004" fill="#232122" d="M 952.5,511.5 C 953.833,512.167 953.833,512.167 952.5,511.5 Z"/></g>
<g><path style="opacity:0.004" fill="#272728" d="M 16.5,513.5 C 15.8333,514.167 15.8333,514.167 16.5,513.5 Z"/></g>
<g><path style="opacity:0.009" fill="#343433" d="M 257.5,513.5 C 257.5,517.5 257.5,521.5 257.5,525.5C 256.766,524.122 256.099,522.622 255.5,521C 256.123,518.393 256.79,515.893 257.5,513.5 Z"/></g>
<g><path style="opacity:0.008" fill="#272826" d="M 952.5,515.5 C 951.833,514.167 951.833,514.167 952.5,515.5 Z"/></g>
<g><path style="opacity:0.008" fill="#282524" d="M 561.5,515.5 C 560.833,516.167 560.833,516.167 561.5,515.5 Z"/></g>
<g><path style="opacity:0.004" fill="#252525" d="M 952.5,515.5 C 953.833,516.167 953.833,516.167 952.5,515.5 Z"/></g>
<g><path style="opacity:0.008" fill="#272827" d="M 114.5,516.5 C 115.833,517.167 115.833,517.167 114.5,516.5 Z"/></g>
<g><path style="opacity:0.004" fill="#292926" d="M 951.5,519.5 C 952.833,520.167 952.833,520.167 951.5,519.5 Z"/></g>
<g><path style="opacity:0.004" fill="#252625" d="M 16.5,520.5 C 15.8333,521.167 15.8333,521.167 16.5,520.5 Z"/></g>
<g><path style="opacity:0.004" fill="#252321" d="M 863.5,522.5 C 864.833,523.167 864.833,523.167 863.5,522.5 Z"/></g>
<g><path style="opacity:0.008" fill="#202020" d="M 862.5,523.5 C 862.833,523.5 863.167,523.5 863.5,523.5C 863.315,524.17 862.981,524.17 862.5,523.5 Z"/></g>
<g><path style="opacity:0.008" fill="#373839" d="M 17.5,527.5 C 17.5,528.5 17.5,529.5 17.5,530.5C 14.8333,529.5 14.8333,528.5 17.5,527.5 Z"/></g>
<g><path style="opacity:0.004" fill="#242423" d="M 952.5,527.5 C 953.833,528.167 953.833,528.167 952.5,527.5 Z"/></g>
<g><path style="opacity:0.01" fill="#333332" d="M 257.5,526.5 C 257.5,532.5 257.5,538.5 257.5,544.5C 256.761,544.631 256.094,544.464 255.5,544C 256.148,538.067 256.814,532.234 257.5,526.5 Z"/></g>
<g><path style="opacity:0.008" fill="#272524" d="M 575.5,528.5 C 576.833,529.167 576.833,529.167 575.5,528.5 Z"/></g>
<g><path style="opacity:0.005" fill="#272627" d="M 952.5,528.5 C 952.649,529.552 952.483,530.552 952,531.5C 951.26,530.251 951.427,529.251 952.5,528.5 Z"/></g>
<g><path style="opacity:0.656" fill="#171717" d="M 311.5,327.5 C 293.833,327.5 276.167,327.5 258.5,327.5C 258.5,422.833 258.5,518.167 258.5,613.5C 257.809,609.101 257.142,604.601 256.5,600C 256.426,596.71 256.76,593.543 257.5,590.5C 255.136,587.535 255.136,584.535 257.5,581.5C 257.5,569.5 257.5,557.5 257.5,545.5C 257.5,545.167 257.5,544.833 257.5,544.5C 257.5,538.5 257.5,532.5 257.5,526.5C 257.5,526.167 257.5,525.833 257.5,525.5C 257.5,521.5 257.5,517.5 257.5,513.5C 257.5,513.167 257.5,512.833 257.5,512.5C 257.5,504.167 257.5,495.833 257.5,487.5C 257.5,486.833 257.5,486.167 257.5,485.5C 257.5,475.167 257.5,464.833 257.5,454.5C 256.167,452.833 256.167,451.167 257.5,449.5C 257.5,436.167 257.5,422.833 257.5,409.5C 257.5,409.167 257.5,408.833 257.5,408.5C 257.5,392.833 257.5,377.167 257.5,361.5C 257.5,361.167 257.5,360.833 257.5,360.5C 257.5,355.833 257.5,351.167 257.5,346.5C 257.5,345.833 257.5,345.167 257.5,344.5C 257.5,341.5 257.5,338.5 257.5,335.5C 256.167,332.5 256.167,329.5 257.5,326.5C 276.244,326.168 294.244,326.501 311.5,327.5 Z"/></g>
<g><path style="opacity:0.004" fill="#232321" d="M 792.5,532.5 C 793.833,533.167 793.833,533.167 792.5,532.5 Z"/></g>
<g><path style="opacity:0.004" fill="#22231f" d="M 800.5,532.5 C 801.833,533.167 801.833,533.167 800.5,532.5 Z"/></g>
<g><path style="opacity:0.004" fill="#242223" d="M 802.5,532.5 C 803.833,533.167 803.833,533.167 802.5,532.5 Z"/></g>
<g><path style="opacity:0.004" fill="#272825" d="M 585.5,533.5 C 584.833,534.167 584.833,534.167 585.5,533.5 Z"/></g>
<g><path style="opacity:0.012" fill="#343331" d="M 717.5,535.5 C 717.5,536.833 717.5,538.167 717.5,539.5C 715.219,538.366 715.219,537.032 717.5,535.5 Z"/></g>
<g><path style="opacity:0.004" fill="#262926" d="M 951.5,536.5 C 952.833,537.167 952.833,537.167 951.5,536.5 Z"/></g>
<g><path style="opacity:0.004" fill="#262525" d="M 114.5,537.5 C 115.833,538.167 115.833,538.167 114.5,537.5 Z"/></g>
<g><path style="opacity:0.008" fill="#1d1e1f" d="M 774.5,537.5 C 775.833,538.167 775.833,538.167 774.5,537.5 Z"/></g>
<g><path style="opacity:0.004" fill="#262726" d="M 114.5,538.5 C 113.833,539.167 113.833,539.167 114.5,538.5 Z"/></g>
<g><path style="opacity:0.006" fill="#272626" d="M 593.5,539.5 C 593.483,541.028 592.816,541.528 591.5,541C 592.044,540.283 592.711,539.783 593.5,539.5 Z"/></g>
<g><path style="opacity:0.008" fill="#1e1c1c" d="M 774.5,539.5 C 775.833,540.167 775.833,540.167 774.5,539.5 Z"/></g>
<g><path style="opacity:0.02" fill="#282726" d="M 117.5,542.5 C 118.239,542.369 118.906,542.536 119.5,543C 118.563,543.692 117.897,543.525 117.5,542.5 Z"/></g>
<g><path style="opacity:0.004" fill="#242323" d="M 128.5,542.5 C 129.833,543.167 129.833,543.167 128.5,542.5 Z"/></g>
<g><path style="opacity:0.004" fill="#252323" d="M 132.5,542.5 C 133.833,543.167 133.833,543.167 132.5,542.5 Z"/></g>
<g><path style="opacity:0.008" fill="#23201f" d="M 135.5,543.5 C 137.628,542.371 139.961,542.204 142.5,543C 140.19,543.497 137.857,543.663 135.5,543.5 Z"/></g>
<g><path style="opacity:0.008" fill="#222021" d="M 143.5,543.5 C 146.304,542.362 149.304,542.195 152.5,543C 149.518,543.498 146.518,543.665 143.5,543.5 Z"/></g>
<g><path style="opacity:0.004" fill="#1f1d1d" d="M 156.5,542.5 C 157.833,543.167 157.833,543.167 156.5,542.5 Z"/></g>
<g><path style="opacity:0.004" fill="#222421" d="M 805.5,542.5 C 806.833,543.167 806.833,543.167 805.5,542.5 Z"/></g>
<g><path style="opacity:0.004" fill="#1e201f" d="M 774.5,544.5 C 775.833,545.167 775.833,545.167 774.5,544.5 Z"/></g>
<g><path style="opacity:0.004" fill="#242726" d="M 951.5,544.5 C 952.833,545.167 952.833,545.167 951.5,544.5 Z"/></g>
<g><path style="opacity:0.004" fill="#262624" d="M 951.5,546.5 C 952.833,547.167 952.833,547.167 951.5,546.5 Z"/></g>
<g><path style="opacity:0.014" fill="#3f3f40" d="M 17.5,543.5 C 17.5,546.5 17.5,549.5 17.5,552.5C 16.79,550.107 16.1233,547.607 15.5,545C 16.0442,544.283 16.7109,543.783 17.5,543.5 Z"/></g>
<g><path style="opacity:0.004" fill="#252522" d="M 600.5,548.5 C 601.833,549.167 601.833,549.167 600.5,548.5 Z"/></g>
<g><path style="opacity:0.008" fill="#262524" d="M 602.5,550.5 C 603.833,551.167 603.833,551.167 602.5,550.5 Z"/></g>
<g><path style="opacity:0.004" fill="#242322" d="M 808.5,550.5 C 809.833,551.167 809.833,551.167 808.5,550.5 Z"/></g>
<g><path style="opacity:0.004" fill="#1c1d1c" d="M 774.5,551.5 C 775.833,552.167 775.833,552.167 774.5,551.5 Z"/></g>
<g><path style="opacity:0.004" fill="#252422" d="M 716.5,553.5 C 716.631,554.239 716.464,554.906 716,555.5C 715.308,554.563 715.475,553.897 716.5,553.5 Z"/></g>
<g><path style="opacity:0.004" fill="#242421" d="M 810.5,555.5 C 809.833,554.167 809.833,554.167 810.5,555.5 Z"/></g>
<g><path style="opacity:0.004" fill="#232220" d="M 810.5,555.5 C 811.833,556.167 811.833,556.167 810.5,555.5 Z"/></g>
<g><path style="opacity:0.004" fill="#1f1e1e" d="M 774.5,556.5 C 775.833,557.167 775.833,557.167 774.5,556.5 Z"/></g>
<g><path style="opacity:0.005" fill="#303031" d="M 17.5,559.5 C 17.5,559.833 17.5,560.167 17.5,560.5C 16.1667,560.833 16.1667,561.167 17.5,561.5C 17.5,561.833 17.5,562.167 17.5,562.5C 14.8333,561.5 14.8333,560.5 17.5,559.5 Z"/></g>
<g><path style="opacity:0.012" fill="#1d1d1b" d="M 774.5,559.5 C 775.833,560.167 775.833,560.167 774.5,559.5 Z"/></g>
<g><path style="opacity:0.004" fill="#262627" d="M 951.5,560.5 C 952.833,561.167 952.833,561.167 951.5,560.5 Z"/></g>
<g><path style="opacity:0.004" fill="#242323" d="M 616.5,562.5 C 615.833,563.167 615.833,563.167 616.5,562.5 Z"/></g>
<g><path style="opacity:0.004" fill="#282826" d="M 951.5,562.5 C 952.833,563.167 952.833,563.167 951.5,562.5 Z"/></g>
<g><path style="opacity:0.004" fill="#262624" d="M 716.5,563.5 C 715.833,564.167 715.833,564.167 716.5,563.5 Z"/></g>
<g><path style="opacity:0.008" fill="#333333" d="M 257.5,545.5 C 257.5,557.5 257.5,569.5 257.5,581.5C 256.824,569.765 256.157,557.931 255.5,546C 256.094,545.536 256.761,545.369 257.5,545.5 Z"/></g>
<g><path style="opacity:0.008" fill="#262523" d="M 617.5,564.5 C 616.833,565.167 616.833,565.167 617.5,564.5 Z"/></g>
<g><path style="opacity:0.006" fill="#1f1e1f" d="M 774.5,563.5 C 775.573,564.251 775.74,565.251 775,566.5C 774.517,565.552 774.351,564.552 774.5,563.5 Z"/></g>
<g><path style="opacity:0.004" fill="#272625" d="M 617.5,566.5 C 618.833,567.167 618.833,567.167 617.5,566.5 Z"/></g>
<g><path style="opacity:0.004" fill="#242625" d="M 875.5,567.5 C 876.833,568.167 876.833,568.167 875.5,567.5 Z"/></g>
<g><path style="opacity:0.004" fill="#242423" d="M 953.5,567.5 C 952.833,568.167 952.833,568.167 953.5,567.5 Z"/></g>
<g><path style="opacity:0.008" fill="#1f1e1e" d="M 774.5,567.5 C 775.525,567.897 775.692,568.563 775,569.5C 774.536,568.906 774.369,568.239 774.5,567.5 Z"/></g>
<g><path style="opacity:0.004" fill="#272726" d="M 952.5,568.5 C 951.833,569.167 951.833,569.167 952.5,568.5 Z"/></g>
<g><path style="opacity:0.004" fill="#282627" d="M 951.5,570.5 C 952.833,571.167 952.833,571.167 951.5,570.5 Z"/></g>
<g><path style="opacity:0.004" fill="#262624" d="M 620.5,572.5 C 621.833,573.167 621.833,573.167 620.5,572.5 Z"/></g>
<g><path style="opacity:0.008" fill="#262524" d="M 817.5,571.5 C 817.631,572.239 817.464,572.906 817,573.5C 816.308,572.563 816.475,571.897 817.5,571.5 Z"/></g>
<g><path style="opacity:0.015" fill="#3a3b3b" d="M 17.5,567.5 C 17.5,572.167 17.5,576.833 17.5,581.5C 16.7109,581.217 16.0442,580.717 15.5,580C 15.9035,575.925 16.5702,571.759 17.5,567.5 Z"/></g>
<g><path style="opacity:0.01" fill="#1e1e1e" d="M 774.5,575.5 C 775.598,576.601 775.765,577.934 775,579.5C 774.51,578.207 774.343,576.873 774.5,575.5 Z"/></g>
<g><path style="opacity:0.004" fill="#242323" d="M 815.5,576.5 C 816.833,577.167 816.833,577.167 815.5,576.5 Z"/></g>
<g><path style="opacity:0.004" fill="#262827" d="M 951.5,576.5 C 952.833,577.167 952.833,577.167 951.5,576.5 Z"/></g>
<g><path style="opacity:0.288" fill="#343432" d="M 117.5,497.5 C 117.5,511.833 117.5,526.167 117.5,540.5C 132.167,540.5 146.833,540.5 161.5,540.5C 161.831,562.007 161.497,583.34 160.5,604.5C 161.148,583.767 160.481,563.267 158.5,543C 159.167,542.667 159.833,542.333 160.5,542C 145.994,541.173 131.661,541.339 117.5,542.5C 116.167,527.5 116.167,512.5 117.5,497.5 Z"/></g>
<g><path style="opacity:0.006" fill="#252423" d="M 817.5,577.5 C 818.289,577.783 818.956,578.283 819.5,579C 818.184,579.528 817.517,579.028 817.5,577.5 Z"/></g>
<g><path style="opacity:0.004" fill="#282927" d="M 951.5,578.5 C 952.833,579.167 952.833,579.167 951.5,578.5 Z"/></g>
<g><path style="opacity:0.004" fill="#2d2e2e" d="M 490.5,581.5 C 489.833,580.167 489.833,580.167 490.5,581.5 Z"/></g>
<g><path style="opacity:0.004" fill="#292928" d="M 530.5,580.5 C 531.833,581.167 531.833,581.167 530.5,580.5 Z"/></g>
<g><path style="opacity:0.004" fill="#282624" d="M 623.5,580.5 C 624.833,581.167 624.833,581.167 623.5,580.5 Z"/></g>
<g><path style="opacity:0.004" fill="#262825" d="M 714.5,580.5 C 715.833,581.167 715.833,581.167 714.5,580.5 Z"/></g>
<g><path style="opacity:0.641" fill="#201f1e" d="M 490.5,581.5 C 506.425,582.491 522.092,582.825 537.5,582.5C 522.009,583.496 506.342,583.83 490.5,583.5C 490.5,583.167 490.5,582.833 490.5,582.5C 490.5,582.167 490.5,581.833 490.5,581.5 Z"/></g>
<g><path style="opacity:0.018" fill="#383938" d="M 17.5,583.5 C 17.5,585.5 17.5,587.5 17.5,589.5C 16.7656,588.122 16.0989,586.622 15.5,585C 16.0442,584.283 16.7109,583.783 17.5,583.5 Z"/></g>
<g><path style="opacity:0.004" fill="#1f1e1f" d="M 774.5,583.5 C 775.573,584.251 775.74,585.251 775,586.5C 774.517,585.552 774.351,584.552 774.5,583.5 Z"/></g>
<g><path style="opacity:0.021" fill="#333333" d="M 540.5,605.5 C 539.804,597.933 539.137,590.266 538.5,582.5C 538.81,581.262 539.31,581.262 540,582.5C 540.5,590.159 540.666,597.826 540.5,605.5 Z"/></g>
<g><path style="opacity:0.004" fill="#272625" d="M 951.5,584.5 C 952.573,585.251 952.74,586.251 952,587.5C 951.517,586.552 951.351,585.552 951.5,584.5 Z"/></g>
<g><path style="opacity:0.004" fill="#252522" d="M 625.5,587.5 C 626.833,588.167 626.833,588.167 625.5,587.5 Z"/></g>
<g><path style="opacity:0.004" fill="#1e201f" d="M 774.5,587.5 C 775.833,588.167 775.833,588.167 774.5,587.5 Z"/></g>
<g><path style="opacity:0.004" fill="#272725" d="M 882.5,588.5 C 883.833,589.167 883.833,589.167 882.5,588.5 Z"/></g>
<g><path style="opacity:0.004" fill="#201f1f" d="M 774.5,589.5 C 775.833,590.167 775.833,590.167 774.5,589.5 Z"/></g>
<g><path style="opacity:0.004" fill="#242521" d="M 952.5,591.5 C 953.833,592.167 953.833,592.167 952.5,591.5 Z"/></g>
<g><path style="opacity:0.008" fill="#202021" d="M 774.5,591.5 C 775.573,592.251 775.74,593.251 775,594.5C 774.517,593.552 774.351,592.552 774.5,591.5 Z"/></g>
<g><path style="opacity:0.004" fill="#262525" d="M 823.5,593.5 C 824.833,594.167 824.833,594.167 823.5,593.5 Z"/></g>
<g><path style="opacity:0.004" fill="#272622" d="M 713.5,594.5 C 714.833,595.167 714.833,595.167 713.5,594.5 Z"/></g>
<g><path style="opacity:0.004" fill="#272525" d="M 951.5,593.5 C 952.525,593.897 952.692,594.563 952,595.5C 951.536,594.906 951.369,594.239 951.5,593.5 Z"/></g>
<g><path style="opacity:0.016" fill="#3b3b3a" d="M 490.5,582.5 C 490.5,582.833 490.5,583.167 490.5,583.5C 489.514,587.97 489.181,592.637 489.5,597.5C 488.804,593.769 488.138,589.935 487.5,586C 487.974,584.271 488.974,583.105 490.5,582.5 Z"/></g>
<g><path style="opacity:0.004" fill="#252522" d="M 715.5,595.5 C 716.833,596.167 716.833,596.167 715.5,595.5 Z"/></g>
<g><path style="opacity:0.008" fill="#1e2121" d="M 774.5,595.5 C 775.833,596.167 775.833,596.167 774.5,595.5 Z"/></g>
<g><path style="opacity:0.012" fill="#262624" d="M 825.5,595.5 C 825.631,596.239 825.464,596.906 825,597.5C 824.308,596.563 824.475,595.897 825.5,595.5 Z"/></g>
<g><path style="opacity:0.004" fill="#222221" d="M 626.5,599.5 C 627.833,600.167 627.833,600.167 626.5,599.5 Z"/></g>
<g><path style="opacity:0.004" fill="#212222" d="M 886.5,599.5 C 887.833,600.167 887.833,600.167 886.5,599.5 Z"/></g>
<g><path style="opacity:0.008" fill="#232423" d="M 952.5,599.5 C 953.833,600.167 953.833,600.167 952.5,599.5 Z"/></g>
<g><path style="opacity:0.004" fill="#202020" d="M 774.5,597.5 C 775.598,598.601 775.765,599.934 775,601.5C 774.51,600.207 774.343,598.873 774.5,597.5 Z"/></g>
<g><path style="opacity:0.004" fill="#282827" d="M 15.5,601.5 C 16.525,601.897 16.6917,602.563 16,603.5C 15.5357,602.906 15.369,602.239 15.5,601.5 Z"/></g>
<g><path style="opacity:0.004" fill="#2a2928" d="M 255.5,601.5 C 256.833,602.167 256.833,602.167 255.5,601.5 Z"/></g>
<g><path style="opacity:0.008" fill="#202121" d="M 626.5,601.5 C 627.833,602.167 627.833,602.167 626.5,601.5 Z"/></g>
<g><path style="opacity:0.006" fill="#343231" d="M 717.5,600.5 C 717.5,601.5 717.5,602.5 717.5,603.5C 714.833,602.5 714.833,601.5 717.5,600.5 Z"/></g>
<g><path style="opacity:0.004" fill="#262524" d="M 826.5,601.5 C 827.525,601.897 827.692,602.563 827,603.5C 826.536,602.906 826.369,602.239 826.5,601.5 Z"/></g>
<g><path style="opacity:0.004" fill="#21221f" d="M 774.5,603.5 C 775.833,604.167 775.833,604.167 774.5,603.5 Z"/></g>
<g><path style="opacity:0.004" fill="#252726" d="M 951.5,603.5 C 952.833,604.167 952.833,604.167 951.5,603.5 Z"/></g>
<g><path style="opacity:0.008" fill="#262523" d="M 827.5,604.5 C 828.573,605.251 828.74,606.251 828,607.5C 827.517,606.552 827.351,605.552 827.5,604.5 Z"/></g>
<g><path style="opacity:0.008" fill="#2a2b2b" d="M 15.5,605.5 C 16.525,605.897 16.6917,606.563 16,607.5C 15.5357,606.906 15.369,606.239 15.5,605.5 Z"/></g>
<g><path style="opacity:0.004" fill="#262524" d="M 682.5,607.5 C 683.833,608.167 683.833,608.167 682.5,607.5 Z"/></g>
<g><path style="opacity:0.004" fill="#222322" d="M 313.5,608.5 C 314.833,609.167 314.833,609.167 313.5,608.5 Z"/></g>
<g><path style="opacity:0.004" fill="#1e2223" d="M 774.5,609.5 C 775.833,610.167 775.833,610.167 774.5,609.5 Z"/></g>
<g><path style="opacity:0.004" fill="#232220" d="M 623.5,610.5 C 624.833,611.167 624.833,611.167 623.5,610.5 Z"/></g>
<g><path style="opacity:0.004" fill="#232420" d="M 625.5,610.5 C 626.833,611.167 626.833,611.167 625.5,610.5 Z"/></g>
<g><path style="opacity:0.004" fill="#262726" d="M 951.5,610.5 C 952.833,611.167 952.833,611.167 951.5,610.5 Z"/></g>
<g><path style="opacity:0.008" fill="#222021" d="M 774.5,612.5 C 775.525,612.897 775.692,613.563 775,614.5C 774.536,613.906 774.369,613.239 774.5,612.5 Z"/></g>
<g><path style="opacity:0.004" fill="#252523" d="M 891.5,613.5 C 892.833,614.167 892.833,614.167 891.5,613.5 Z"/></g>
<g><path style="opacity:0.009" fill="#282828" d="M 16.5,615.5 C 17.5983,616.601 17.765,617.934 17,619.5C 16.51,618.207 16.3433,616.873 16.5,615.5 Z"/></g>
<g><path style="opacity:0.004" fill="#292a28" d="M 256.5,615.5 C 257.833,616.167 257.833,616.167 256.5,615.5 Z"/></g>
<g><path style="opacity:0.004" fill="#222322" d="M 391.5,616.5 C 392.833,617.167 392.833,617.167 391.5,616.5 Z"/></g>
<g><path style="opacity:0.004" fill="#2a2b2a" d="M 256.5,618.5 C 257.833,619.167 257.833,619.167 256.5,618.5 Z"/></g>
<g><path style="opacity:0.004" fill="#252423" d="M 623.5,618.5 C 624.833,619.167 624.833,619.167 623.5,618.5 Z"/></g>
<g><path style="opacity:0.004" fill="#272425" d="M 832.5,618.5 C 833.833,619.167 833.833,619.167 832.5,618.5 Z"/></g>
<g><path style="opacity:0.004" fill="#272625" d="M 951.5,618.5 C 952.833,619.167 952.833,619.167 951.5,618.5 Z"/></g>
<g><path style="opacity:0.043" fill="#383837" d="M 258.5,616.5 C 259.451,617.919 259.784,619.585 259.5,621.5C 258.761,621.631 258.094,621.464 257.5,621C 258.38,619.644 258.714,618.144 258.5,616.5 Z"/></g>
<g><path style="opacity:0.004" fill="#282825" d="M 832.5,620.5 C 833.833,621.167 833.833,621.167 832.5,620.5 Z"/></g>
<g><path style="opacity:0.004" fill="#232523" d="M 75.5,621.5 C 76.8333,622.167 76.8333,622.167 75.5,621.5 Z"/></g>
<g><path style="opacity:0.004" fill="#252525" d="M 894.5,621.5 C 895.833,622.167 895.833,622.167 894.5,621.5 Z"/></g>
<g><path style="opacity:0.004" fill="#292b28" d="M 257.5,622.5 C 258.833,623.167 258.833,623.167 257.5,622.5 Z"/></g>
<g><path style="opacity:0.008" fill="#282726" d="M 833.5,622.5 C 834.833,623.167 834.833,623.167 833.5,622.5 Z"/></g>
<g><path style="opacity:0.004" fill="#272827" d="M 16.5,623.5 C 17.8333,624.167 17.8333,624.167 16.5,623.5 Z"/></g>
<g><path style="opacity:0.004" fill="#20211f" d="M 774.5,623.5 C 775.833,624.167 775.833,624.167 774.5,623.5 Z"/></g>
<g><path style="opacity:0.004" fill="#1c1f1c" d="M 894.5,623.5 C 895.833,624.167 895.833,624.167 894.5,623.5 Z"/></g>
<g><path style="opacity:0.004" fill="#262724" d="M 834.5,624.5 C 835.833,625.167 835.833,625.167 834.5,624.5 Z"/></g>
<g><path style="opacity:0.004" fill="#262725" d="M 18.5,625.5 C 19.8333,626.167 19.8333,626.167 18.5,625.5 Z"/></g>
<g><path style="opacity:0.004" fill="#2a2c2a" d="M 257.5,626.5 C 258.833,627.167 258.833,627.167 257.5,626.5 Z"/></g>
<g><path style="opacity:0.004" fill="#232521" d="M 391.5,626.5 C 392.833,627.167 392.833,627.167 391.5,626.5 Z"/></g>
<g><path style="opacity:0.004" fill="#282926" d="M 18.5,627.5 C 19.8333,628.167 19.8333,628.167 18.5,627.5 Z"/></g>
<g><path style="opacity:0.012" fill="#2c2a2a" d="M 258.5,628.5 C 259.833,629.167 259.833,629.167 258.5,628.5 Z"/></g>
<g><path style="opacity:0.004" fill="#2c2e2c" d="M 490.5,628.5 C 491.833,629.167 491.833,629.167 490.5,628.5 Z"/></g>
<g><path style="opacity:0.006" fill="#282829" d="M 451.5,629.5 C 452.525,629.897 452.692,630.563 452,631.5C 451.536,630.906 451.369,630.239 451.5,629.5 Z"/></g>
<g><path style="opacity:0.004" fill="#2a2a29" d="M 19.5,630.5 C 20.8333,631.167 20.8333,631.167 19.5,630.5 Z"/></g>
<g><path style="opacity:0.008" fill="#2a2c28" d="M 260.5,630.5 C 259.833,631.167 259.833,631.167 260.5,630.5 Z"/></g>
<g><path style="opacity:0.008" fill="#2b2c29" d="M 492.5,630.5 C 491.833,631.167 491.833,631.167 492.5,630.5 Z"/></g>
<g><path style="opacity:0.669" fill="#202021" d="M 954.5,681.5 C 954.5,683.167 954.5,684.833 954.5,686.5C 972.5,686.5 990.5,686.5 1008.5,686.5C 1008.5,566.833 1008.5,447.167 1008.5,327.5C 990.5,327.5 972.5,327.5 954.5,327.5C 953.761,327.631 953.094,327.464 952.5,327C 953.5,326.5 954.5,326 955.5,325.5C 973.495,326.484 991.328,326.817 1009,326.5C 1009.5,446.833 1009.67,567.166 1009.5,687.5C 990.833,687.5 972.167,687.5 953.5,687.5C 953.205,685.265 953.539,683.265 954.5,681.5 Z"/></g>
<g><path style="opacity:0.004" fill="#24211f" d="M 145.5,631.5 C 146.833,632.167 146.833,632.167 145.5,631.5 Z"/></g>
<g><path style="opacity:0.006" fill="#222221" d="M 774.5,631.5 C 775.525,631.897 775.692,632.563 775,633.5C 774.536,632.906 774.369,632.239 774.5,631.5 Z"/></g>
<g><path style="opacity:0.004" fill="#242424" d="M 84.5,632.5 C 85.8333,633.167 85.8333,633.167 84.5,632.5 Z"/></g>
<g><path style="opacity:0.004" fill="#20201f" d="M 148.5,632.5 C 149.833,633.167 149.833,633.167 148.5,632.5 Z"/></g>
<g><path style="opacity:0.004" fill="#2a2728" d="M 951.5,634.5 C 952.833,635.167 952.833,635.167 951.5,634.5 Z"/></g>
<g><path style="opacity:0.008" fill="#222120" d="M 136.5,639.5 C 137.833,640.167 137.833,640.167 136.5,639.5 Z"/></g>
<g><path style="opacity:0.004" fill="#232422" d="M 774.5,639.5 C 775.833,640.167 775.833,640.167 774.5,639.5 Z"/></g>
<g><path style="opacity:0.004" fill="#23231f" d="M 135.5,642.5 C 136.833,643.167 136.833,643.167 135.5,642.5 Z"/></g>
<g><path style="opacity:0.004" fill="#2c2a29" d="M 496.5,642.5 C 495.833,643.167 495.833,643.167 496.5,642.5 Z"/></g>
<g><path style="opacity:0.008" fill="#242221" d="M 564.5,642.5 C 565.833,643.167 565.833,643.167 564.5,642.5 Z"/></g>
<g><path style="opacity:0.008" fill="#272625" d="M 840.5,642.5 C 841.833,643.167 841.833,643.167 840.5,642.5 Z"/></g>
<g><path style="opacity:0.004" fill="#272727" d="M 951.5,642.5 C 952.833,643.167 952.833,643.167 951.5,642.5 Z"/></g>
<g><path style="opacity:0.004" fill="#262421" d="M 600.5,644.5 C 601.833,645.167 601.833,645.167 600.5,644.5 Z"/></g>
<g><path style="opacity:0.004" fill="#2a2927" d="M 674.5,644.5 C 675.833,645.167 675.833,645.167 674.5,644.5 Z"/></g>
<g><path style="opacity:0.004" fill="#222524" d="M 774.5,645.5 C 775.833,646.167 775.833,646.167 774.5,645.5 Z"/></g>
<g><path style="opacity:0.004" fill="#292827" d="M 841.5,645.5 C 842.833,646.167 842.833,646.167 841.5,645.5 Z"/></g>
<g><path style="opacity:0.012" fill="#201f1e" d="M 109.5,648.5 C 109.897,647.475 110.563,647.308 111.5,648C 110.906,648.464 110.239,648.631 109.5,648.5 Z"/></g>
<g><path style="opacity:0.006" fill="#212021" d="M 114.5,648.5 C 114.897,647.475 115.563,647.308 116.5,648C 115.906,648.464 115.239,648.631 114.5,648.5 Z"/></g>
<g><path style="opacity:0.004" fill="#202120" d="M 117.5,647.5 C 118.833,648.167 118.833,648.167 117.5,647.5 Z"/></g>
<g><path style="opacity:0.004" fill="#222322" d="M 349.5,647.5 C 350.833,648.167 350.833,648.167 349.5,647.5 Z"/></g>
<g><path style="opacity:0.008" fill="#222323" d="M 351.5,647.5 C 352.833,648.167 352.833,648.167 351.5,647.5 Z"/></g>
<g><path style="opacity:0.008" fill="#232122" d="M 585.5,647.5 C 586.833,648.167 586.833,648.167 585.5,647.5 Z"/></g>
<g><path style="opacity:0.371" fill="#2b2b2b" d="M 804.5,531.5 C 794.828,531.334 785.161,531.5 775.5,532C 777.595,532.556 777.762,533.056 776,533.5C 775.055,533.095 774.388,532.428 774,531.5C 773.833,544.167 773.667,556.833 773.5,569.5C 773.51,582.557 774.176,595.39 775.5,608C 773.037,611.006 773.037,614.173 775.5,617.5C 775.333,618.167 775.167,618.833 775,619.5C 774.667,618.5 774.333,617.5 774,616.5C 773.173,640.073 773.34,663.573 774.5,687C 755.329,687.829 736.329,687.662 717.5,686.5C 735.833,686.5 754.167,686.5 772.5,686.5C 772.5,634.5 772.5,582.5 772.5,530.5C 783.346,530.172 794.013,530.506 804.5,531.5 Z"/></g>
<g><path style="opacity:0.004" fill="#282728" d="M 951.5,647.5 C 952.573,648.251 952.74,649.251 952,650.5C 951.517,649.552 951.351,648.552 951.5,647.5 Z"/></g>
<g><path style="opacity:0.004" fill="#2a2c2c" d="M 263.5,648.5 C 264.833,649.167 264.833,649.167 263.5,648.5 Z"/></g>
<g><path style="opacity:0.004" fill="#2b2e2b" d="M 498.5,649.5 C 499.833,650.167 499.833,650.167 498.5,649.5 Z"/></g>
<g><path style="opacity:0.004" fill="#2b2c2b" d="M 498.5,650.5 C 497.833,651.167 497.833,651.167 498.5,650.5 Z"/></g>
<g><path style="opacity:0.004" fill="#2a2b29" d="M 443.5,651.5 C 444.833,652.167 444.833,652.167 443.5,651.5 Z"/></g>
<g><path style="opacity:0.004" fill="#2d2d2d" d="M 499.5,651.5 C 500.833,652.167 500.833,652.167 499.5,651.5 Z"/></g>
<g><path style="opacity:0.004" fill="#272928" d="M 715.5,651.5 C 716.833,652.167 716.833,652.167 715.5,651.5 Z"/></g>
<g><path style="opacity:0.004" fill="#252525" d="M 774.5,648.5 C 775.598,649.601 775.765,650.934 775,652.5C 774.51,651.207 774.343,649.873 774.5,648.5 Z"/></g>
<g><path style="opacity:0.004" fill="#282928" d="M 953.5,651.5 C 952.833,652.167 952.833,652.167 953.5,651.5 Z"/></g>
<g><path style="opacity:0.004" fill="#2a2b28" d="M 29.5,652.5 C 28.8333,653.167 28.8333,653.167 29.5,652.5 Z"/></g>
<g><path style="opacity:0.004" fill="#2b2b27" d="M 443.5,652.5 C 442.833,653.167 442.833,653.167 443.5,652.5 Z"/></g>
<g><path style="opacity:0.016" fill="#2b2d2a" d="M 30.5,654.5 C 29.8333,655.167 29.8333,655.167 30.5,654.5 Z"/></g>
<g><path style="opacity:0.016" fill="#2b2c2b" d="M 270.5,654.5 C 269.833,655.167 269.833,655.167 270.5,654.5 Z"/></g>
<g><path style="opacity:0.008" fill="#2d2e2d" d="M 501.5,654.5 C 502.833,655.167 502.833,655.167 501.5,654.5 Z"/></g>
<g><path style="opacity:0.004" fill="#262523" d="M 906.5,655.5 C 907.833,656.167 907.833,656.167 906.5,655.5 Z"/></g>
<g><path style="opacity:0.004" fill="#242727" d="M 774.5,657.5 C 775.833,658.167 775.833,658.167 774.5,657.5 Z"/></g>
<g><path style="opacity:0.004" fill="#2d2d2c" d="M 33.5,658.5 C 33.631,659.239 33.4643,659.906 33,660.5C 32.3083,659.563 32.475,658.897 33.5,658.5 Z"/></g>
<g><path style="opacity:0.006" fill="#2c2a2a" d="M 273.5,658.5 C 273.103,659.525 272.437,659.692 271.5,659C 272.094,658.536 272.761,658.369 273.5,658.5 Z"/></g>
<g><path style="opacity:0.004" fill="#2c2c2a" d="M 505.5,658.5 C 504.833,659.167 504.833,659.167 505.5,658.5 Z"/></g>
<g><path style="opacity:0.004" fill="#2c2a2b" d="M 505.5,660.5 C 506.833,661.167 506.833,661.167 505.5,660.5 Z"/></g>
<g><path style="opacity:0.008" fill="#2c2c29" d="M 35.5,661.5 C 34.8333,662.167 34.8333,662.167 35.5,661.5 Z"/></g>
<g><path style="opacity:0.007" fill="#29292a" d="M 951.5,663.5 C 952.573,664.251 952.74,665.251 952,666.5C 951.517,665.552 951.351,664.552 951.5,663.5 Z"/></g>
<g><path style="opacity:0.004" fill="#2c2c28" d="M 660.5,666.5 C 661.833,667.167 661.833,667.167 660.5,666.5 Z"/></g>
<g><path style="opacity:0.004" fill="#373737" d="M 850.5,665.5 C 851.338,665.842 851.672,666.508 851.5,667.5C 850.778,667.918 850.278,668.584 850,669.5C 849.421,668.072 849.588,666.738 850.5,665.5 Z"/></g>
<g><path style="opacity:0.004" fill="#2b2d2a" d="M 282.5,669.5 C 281.833,670.167 281.833,670.167 282.5,669.5 Z"/></g>
<g><path style="opacity:0.004" fill="#282928" d="M 774.5,671.5 C 775.573,672.251 775.74,673.251 775,674.5C 774.517,673.552 774.351,672.552 774.5,671.5 Z"/></g>
<g><path style="opacity:0.004" fill="#2a2a29" d="M 48.5,674.5 C 47.8333,675.167 47.8333,675.167 48.5,674.5 Z"/></g>
<g><path style="opacity:0.004" fill="#2b2b2a" d="M 951.5,674.5 C 952.833,675.167 952.833,675.167 951.5,674.5 Z"/></g>
<g><path style="opacity:0.004" fill="#2c2c2c" d="M 522.5,676.5 C 521.833,677.167 521.833,677.167 522.5,676.5 Z"/></g>
<g><path style="opacity:0.004" fill="#28292b" d="M 774.5,679.5 C 775.833,680.167 775.833,680.167 774.5,679.5 Z"/></g>
<g><path style="opacity:0.008" fill="#2a2b2b" d="M 56.5,680.5 C 55.8333,681.167 55.8333,681.167 56.5,680.5 Z"/></g>
<g><path style="opacity:0.008" fill="#2c2e2d" d="M 296.5,680.5 C 295.833,681.167 295.833,681.167 296.5,680.5 Z"/></g>
<g><path style="opacity:0.004" fill="#2c2c2a" d="M 529.5,682.5 C 530.833,683.167 530.833,683.167 529.5,682.5 Z"/></g>
<g><path style="opacity:0.004" fill="#2b292c" d="M 774.5,681.5 C 775.525,681.897 775.692,682.563 775,683.5C 774.536,682.906 774.369,682.239 774.5,681.5 Z"/></g>
<g><path style="opacity:0.004" fill="#2a2c28" d="M 57.5,683.5 C 58.8333,684.167 58.8333,684.167 57.5,683.5 Z"/></g>
<g><path style="opacity:0.012" fill="#2d2d28" d="M 533.5,684.5 C 534.833,685.167 534.833,685.167 533.5,684.5 Z"/></g>
<g><path style="opacity:0.004" fill="#2e302e" d="M 714.5,684.5 C 715.833,685.167 715.833,685.167 714.5,684.5 Z"/></g>
<g><path style="opacity:0.004" fill="#2c2e2c" d="M 916.5,684.5 C 917.833,685.167 917.833,685.167 916.5,684.5 Z"/></g>
<g><path style="opacity:0.004" fill="#282a28" d="M 855.5,685.5 C 856.833,686.167 856.833,686.167 855.5,685.5 Z"/></g>
<g><path style="opacity:0.622" fill="#202121" d="M 857.5,685.5 C 876.931,686.825 896.264,686.825 915.5,685.5C 915.833,685.5 916.167,685.5 916.5,685.5C 916.611,686.117 916.944,686.617 917.5,687C 907.5,687.167 897.5,687.333 887.5,687.5C 877.144,687.499 867.144,686.832 857.5,685.5 Z"/></g>
<g><path style="opacity:0.071" fill="#3f3d3d" d="M 80.5,689.5 C 81.791,689.263 82.791,689.596 83.5,690.5C 82.5041,690.414 81.6708,690.748 81,691.5C 80.5357,690.906 80.369,690.239 80.5,689.5 Z"/></g>
<g><path style="opacity:0.008" fill="#2d2b2b" d="M 150.5,691.5 C 150.897,690.475 151.563,690.308 152.5,691C 151.906,691.464 151.239,691.631 150.5,691.5 Z"/></g>
<g><path style="opacity:0.004" fill="#2c2c2a" d="M 86.5,692.5 C 87.8333,693.167 87.8333,693.167 86.5,692.5 Z"/></g>
<g><path style="opacity:0.004" fill="#2d2c29" d="M 88.5,692.5 C 89.8333,693.167 89.8333,693.167 88.5,692.5 Z"/></g>
<g><path style="opacity:0.012" fill="#2c2b2c" d="M 384.5,693.5 C 384.897,692.475 385.563,692.308 386.5,693C 385.906,693.464 385.239,693.631 384.5,693.5 Z"/></g>
<g><path style="opacity:0.767" fill="#262525" d="M 603.5,692.5 C 599.635,693.224 595.635,693.891 591.5,694.5C 590.893,694.376 590.56,694.043 590.5,693.5C 594.735,692.564 599.069,692.231 603.5,692.5 Z"/></g>
<g><path style="opacity:0.004" fill="#2c2c2a" d="M 90.5,693.5 C 91.8333,694.167 91.8333,694.167 90.5,693.5 Z"/></g>
<g><path style="opacity:0.004" fill="#2d2c2b" d="M 563.5,693.5 C 564.833,694.167 564.833,694.167 563.5,693.5 Z"/></g>
<g><path style="opacity:0.008" fill="#272526" d="M 364.5,694.5 C 365.833,695.167 365.833,695.167 364.5,694.5 Z"/></g>
<g><path style="opacity:0.004" fill="#2b2927" d="M 368.5,694.5 C 369.833,695.167 369.833,695.167 368.5,694.5 Z"/></g>
<g><path style="opacity:0.006" fill="#2a272a" d="M 371.5,695.5 C 371.897,694.475 372.563,694.308 373.5,695C 372.906,695.464 372.239,695.631 371.5,695.5 Z"/></g>
<g><path style="opacity:0.008" fill="#2c2829" d="M 572.5,694.5 C 573.833,695.167 573.833,695.167 572.5,694.5 Z"/></g>
<g><path style="opacity:0.004" fill="#292728" d="M 596.5,694.5 C 597.833,695.167 597.833,695.167 596.5,694.5 Z"/></g>
<g><path style="opacity:0.004" fill="#2a2b28" d="M 600.5,694.5 C 601.833,695.167 601.833,695.167 600.5,694.5 Z"/></g>
<g><path style="opacity:0.004" fill="#323331" d="M 307.5,933.5 C 308.833,934.167 308.833,934.167 307.5,933.5 Z"/></g>
</svg>
